<svg width="390" height="121" viewBox="0 0 390 121" fill="none" xmlns="http://www.w3.org/2000/svg">
<g filter="url(#filter0_d_106_797)">
<path fill-rule="evenodd" clip-rule="evenodd" d="M0 47L5 59C10 70 20 94 30 101C40 109 50 101 60 90C70 78 80 62 90 57C100 51 110 55 120 51C130 47 140 35 150 37C160 39 170 55 180 53C190 51 200 31 210 31C220 31 230 51 240 49C250 47 260 23 270 27C280 31 290 62 300 82C310 101 320 109 330 109C340 109 350 101 360 88C370 74 380 55 385 45L390 35V0H385C380 0 370 0 360 0C350 0 340 0 330 0C320 0 310 0 300 0C290 0 280 0 270 0C260 0 250 0 240 0C230 0 220 0 210 0C200 0 190 0 180 0C170 0 160 0 150 0C140 0 130 0 120 0C110 0 100 0 90 0C80 0 70 0 60 0C50 0 40 0 30 0C20 0 10 0 5 0H0V47Z" fill="url(#paint0_linear_106_797)" fill-opacity="0.5" shape-rendering="crispEdges"/>
</g>
<defs>
<filter id="filter0_d_106_797" x="-5.34595" y="0" width="400.692" height="120.965" filterUnits="userSpaceOnUse" color-interpolation-filters="sRGB">
<feFlood flood-opacity="0" result="BackgroundImageFix"/>
<feColorMatrix in="SourceAlpha" type="matrix" values="0 0 0 0 0 0 0 0 0 0 0 0 0 0 0 0 0 0 127 0" result="hardAlpha"/>
<feOffset dy="6.6188"/>
<feGaussianBlur stdDeviation="2.67298"/>
<feComposite in2="hardAlpha" operator="out"/>
<feColorMatrix type="matrix" values="0 0 0 0 0 0 0 0 0 0 0 0 0 0 0 0 0 0 0.1 0"/>
<feBlend mode="normal" in2="BackgroundImageFix" result="effect1_dropShadow_106_797"/>
<feBlend mode="normal" in="SourceGraphic" in2="effect1_dropShadow_106_797" result="shape"/>
</filter>
<linearGradient id="paint0_linear_106_797" x1="195" y1="0" x2="195" y2="109" gradientUnits="userSpaceOnUse">
<stop offset="0.3125" stop-color="#E4EFE7" stop-opacity="0"/>
<stop offset="1" stop-color="#E4EFE7" stop-opacity="0.25"/>
</linearGradient>
</defs>
</svg>
