<svg xmlns="http://www.w3.org/2000/svg" class="A" id="A" viewBox="0 0 500 500" xmlns:v="https://vecta.io/nano"><style><![CDATA[svg#A.A #B{animation:6s Infinite linear heartbeat;animation-delay:0s}svg#A.A #C{animation:3s Infinite linear floating;animation-delay:0s}svg#A.A #D{animation:1.5s Infinite linear spin;animation-delay:0s}svg#A.A #E{animation:3s Infinite linear heartbeat;animation-delay:0s}svg#A.A #F{animation:1.5s Infinite linear heartbeat;animation-delay:0s}svg#A.A #G{animation:3s Infinite linear heartbeat;animation-delay:0s}svg#A.A #H{animation:3s Infinite linear heartbeat;animation-delay:0s}svg#A.A #I{animation:1.5s Infinite linear floating;animation-delay:0s}@keyframes heartbeat{0%{transform:scale(1)}10%{transform:scale(1.1)}30%{transform:scale(1)}40%{transform:scale(1)}50%{transform:scale(1.1)}60%{transform:scale(1)}100%{transform:scale(1)}} @keyframes floating{0%{opacity:1;transform:translateY(0px)}50%{transform:translateY(-10px)}100%{opacity:1;transform:translateY(0px)}} @keyframes spin{from{transform:rotate(0)}to{transform:rotate(360deg)}} @keyframes heartbeat{0%{transform:scale(1)}10%{transform:scale(1.1)}30%{transform:scale(1)}40%{transform:scale(1)}50%{transform:scale(1.1)}60%{transform:scale(1)}100%{transform:scale(1)}} @keyframes floating{0%{opacity:1;transform:translateY(0px)}50%{transform:translateY(-10px)}100%{opacity:1;transform:translateY(0px)}} @keyframes spin{from{transform:rotate(0)}to{transform:rotate(360deg)}}.C{fill:#064420}.D{fill:#fff}.E{fill:#263238}.F{fill:#ffb573}.G{opacity:.8}.H{opacity:.5}.I{opacity:.2}]]></style><g id="B" class="B" transform-origin="229.406px 263.597px"><path d="M258.06 135.91c-13.85 14.94-21 34.71-28.78 53.53s-17.38 38.07-34.14 49.66c-11.9 8.23-30.3 4.38-43.15 11-20.69 10.72-28.9 19.81-33.89 42.57-5.94 27.06 39.28 96.09 82.79 112.21 26.67 9.87 63.91 4.93 84.59-14.58s17.32-57.66 20.79-85.88c2.51-20.33 1.19-41.44 8.12-60.71 6.14-17.07 18.4-31.52 23.91-48.81 7.33-23 .84-53.63-18.14-69.68-18.64-15.73-47.05-5.56-62.1 10.69z" class="C" transform-origin="229.406px 263.597px"/><g class="D"><g opacity=".9" transform-origin="229.406px 263.597px"><path d="M258.06 135.91c-13.85 14.94-21 34.71-28.78 53.53s-17.38 38.07-34.14 49.66c-11.9 8.23-30.3 4.38-43.15 11-20.69 10.72-28.9 19.81-33.89 42.57-5.94 27.06 39.28 96.09 82.79 112.21 26.67 9.87 63.91 4.93 84.59-14.58s17.32-57.66 20.79-85.88c2.51-20.33 1.19-41.44 8.12-60.71 6.14-17.07 18.4-31.52 23.91-48.81 7.33-23 .84-53.63-18.14-69.68-18.64-15.73-47.05-5.56-62.1 10.69z" stroke="#fff" stroke-miterlimit="10" transform-origin="229.406px 263.597px"/></g></g></g><g id="C" class="B" transform-origin="250px 431.27px"><g transform-origin="250px 431.27px"><ellipse cx="250" cy="431.27" rx="193.89" ry="11.32" fill="#f5f5f5" transform-origin="250px 431.27px"/></g></g><g id="D" class="B" transform-origin="128.44px 225.06px"><g class="C"><ellipse cx="128.44" cy="225.06" rx="24.14" ry="26.34" transform-origin="128.44px 225.06px" transform="rotate(313.75)"/></g><g class="D"><g class="G" transform-origin="128.44px 225.06px"><g><ellipse cx="128.44" cy="225.06" rx="24.14" ry="26.34" transform-origin="128.44px 225.06px" transform="rotate(313.75)"/></g></g></g><g class="C"><path d="M116.69 209.24a1 1 0 0 1-.6-1.8 19.21 19.21 0 0 1 11.57-3.6h0a1 1 0 0 1 0 2h0a17.18 17.18 0 0 0-10.37 3.2 1 1 0 0 1-.6.2z" transform-origin="122.175px 206.538px"/><path d="M121.42,243.64a1,1,0,0,1-.47-.12,23.3,23.3,0,0,1-11.9-16.18,20.37,20.37,0,0,1,4-17,1,1,0,0,1,1.54,1.28A18.39,18.39,0,0,0,111,227a21.37,21.37,0,0,0,10.88,14.8,1,1,0,0,1-.47,1.88Z" transform-origin="115.5px 226.829px"/><path d="M131.43 246.25a21.6 21.6 0 0 1-6.59-1.06 1 1 0 0 1 .62-1.91c6.15 2 12.29.88 16.84-3a17.92 17.92 0 0 0 5.78-16.6 1 1 0 1 1 2-.32 19.83 19.83 0 0 1-6.45 18.43 18.44 18.44 0 0 1-12.2 4.46z" transform-origin="137.271px 234.377px"/><path d="M148.25 221.12a1 1 0 0 1-.95-.7 21.31 21.31 0 0 0-11.58-12.89 1 1 0 0 1 .8-1.84 23.34 23.34 0 0 1 12.68 14.12 1 1 0 0 1-.64 1.26 1.18 1.18 0 0 1-.31.05z" transform-origin="142.184px 213.364px"/><path d="M132.49 206.4a.85.85 0 0 1-.23 0 20.33 20.33 0 0 0-4.59-.53 1 1 0 1 1 0-2h0a22.05 22.05 0 0 1 5 .59 1 1 0 0 1-.23 2z" transform-origin="130.116px 205.168px"/><path d="M114.85 230.29a1 1 0 0 1-.94-.65 15.87 15.87 0 0 1 1.76-14.78 15 15 0 0 1 12.52-6.46h0a1 1 0 0 1 0 2h0a13.09 13.09 0 0 0-10.89 5.6 13.93 13.93 0 0 0-1.51 13 1 1 0 0 1-.59 1.28 1.07 1.07 0 0 1-.35.01z" transform-origin="121.014px 219.349px"/><path d="M130.71,241.71h0a18.63,18.63,0,0,1-15-8.47,1,1,0,0,1,1.67-1.09,16.62,16.62,0,0,0,13.33,7.56,1,1,0,0,1,0,2Z" transform-origin="123.648px 236.734px"/><path d="M134.45 241.28a1 1 0 0 1-.27-1.97c8.11-2 10.21-9.11 9.54-14.57-.87-7.12-6.49-14.33-15.56-14.34a1 1 0 1 1 0-2h0c10.23 0 16.57 8.1 17.55 16.1 1 8.25-3.33 14.83-11.05 16.75a1 1 0 0 1-.21.03z" transform-origin="136.506px 224.84px"/><path d="M124.1 215.92a1 1 0 0 1-.9-.58 1 1 0 0 1 .48-1.33 11.71 11.71 0 0 1 4.87-1 1 1 0 0 1 0 2 9.66 9.66 0 0 0-4 .87 1 1 0 0 1-.45.04z" transform-origin="126.328px 214.469px"/><path d="M130.53,237.05a13.25,13.25,0,0,1-11.91-7.9c-2.07-4.51-1.46-9.22,1.63-12.62a1,1,0,0,1,1.41-.06,1,1,0,0,1,.06,1.41,9.28,9.28,0,0,0-1.28,10.43,11.25,11.25,0,0,0,10.41,6.74,8.64,8.64,0,0,0,7.85-5.17A10.33,10.33,0,0,0,136.86,219a1,1,0,1,1,1.52-1.3,12.32,12.32,0,0,1,2.15,13,10.62,10.62,0,0,1-9.62,6.36Z" transform-origin="129.457px 226.634px"/><path d="M134.74,216.8a.94.94,0,0,1-.53-.16,10.56,10.56,0,0,0-5.66-1.68,1,1,0,0,1,0-2h0a12.48,12.48,0,0,1,6.73,2,1,1,0,0,1-.54,1.84Z" transform-origin="131.644px 214.88px"/><path d="M130 232.54a8 8 0 0 1-6.11-2.9 7.61 7.61 0 0 1-1.2-8.15 6.75 6.75 0 0 1 6.27-4h0a1 1 0 0 1 0 2 4.79 4.79 0 0 0-4.45 2.81 5.61 5.61 0 0 0 .91 6 5.91 5.91 0 0 0 6 2 4.73 4.73 0 0 0 3.59-3.64 1 1 0 1 1 1.96.43 6.71 6.71 0 0 1-5.06 5.15 8.12 8.12 0 0 1-1.91.3z" transform-origin="129.502px 225.015px"/><path d="M135.82 224.62a1 1 0 0 1-1-.7 6.32 6.32 0 0 0-5.87-4.4 1 1 0 1 1 0-2h0a8.37 8.37 0 0 1 7.78 5.8 1 1 0 0 1-.91 1.3z" transform-origin="132.364px 221.071px"/><path d="M130.27,228.38a1,1,0,0,1,0-2,1,1,0,0,0,1-1.06,1.47,1.47,0,0,0-1.45-1.51,1.11,1.11,0,0,0-.78.35,1.2,1.2,0,0,0-.28.88,1,1,0,1,1-2,.12,3.09,3.09,0,0,1,3-3.35,3.46,3.46,0,0,1,3.45,3.51,3,3,0,0,1-3,3.06Z" transform-origin="129.98px 225.095px"/><path d="M156 225.05c1.22 13.93-9.09 25.22-23 25.22h-1.08c13.26-.68 22.89-11.7 21.71-25.19a28.13 28.13 0 0 0-26.11-25.18h1.07c13.95-.06 26.23 11.23 27.41 25.15z" transform-origin="141.809px 225.085px"/></g><g class="D"><g opacity=".4" transform-origin="141.809px 225.085px"><path d="M156 225.05c1.22 13.93-9.09 25.22-23 25.22h-1.08c13.26-.68 22.89-11.7 21.71-25.19a28.13 28.13 0 0 0-26.11-25.18h1.07c13.95-.06 26.23 11.23 27.41 25.15z" transform-origin="141.809px 225.085px"/></g></g></g><g id="E" class="B" transform-origin="226.95px 100.201px"><path d="M176.42 102.14a8.66 8.66 0 0 0 .12.89 9.12 9.12 0 0 0 2.82 5 9 9 0 0 0 6.07 2.43h84.49a7.44 7.44 0 0 0 7.59-7.4 8.88 8.88 0 0 0 0-.89 9.25 9.25 0 0 0-9-8.28H184a7.47 7.47 0 0 0-7.58 8.25z" class="C" transform-origin="226.95px 102.175px"/><g class="D"><path d="M176.42 102.14a8.66 8.66 0 0 0 .12.89 9.12 9.12 0 0 0 2.82 5 9 9 0 0 0 6.07 2.43h84.49a7.44 7.44 0 0 0 7.59-7.4 8.88 8.88 0 0 0 0-.89 9.25 9.25 0 0 0-9-8.28H184a7.47 7.47 0 0 0-7.58 8.25z" class="G" transform-origin="226.95px 102.175px"/></g><path d="M277.51 103a5.29 5.29 0 0 1-.06.8 9.25 9.25 0 0 0-9-8l-89.83.2a7.56 7.56 0 0 1 5.38-2.14h84.49a9.25 9.25 0 0 1 9 8.28 8.88 8.88 0 0 1 .02.86z" class="C" transform-origin="228.066px 98.8296px"/><g class="D"><path d="M277.51 103a5.29 5.29 0 0 1-.06.8 9.25 9.25 0 0 0-9-8l-89.83.2a7.56 7.56 0 0 1 5.38-2.14h84.49a9.25 9.25 0 0 1 9 8.28 8.88 8.88 0 0 1 .02.86z" class="H" transform-origin="228.066px 98.8296px"/></g><g class="C"><path d="M263,97.86l.36,4,3.76-1.4.89,2-3.84,1.28,2.76,3.39-1.73,1.27-2.69-3.52-2,3.52-1.89-1.27,2.13-3.39-4-1.28.54-2,4.05,1.35-.36-4Z" transform-origin="262.38px 103.105px"/><path d="M239.85 97.86l.36 4 3.76-1.4.9 2-3.87 1.31 2.76 3.39-1.72 1.27-2.69-3.52-2 3.52-1.9-1.27 2.14-3.39-4-1.28.54-2 4.05 1.35-.35-4z" transform-origin="239.23px 103.135px"/><path d="M216.75 97.86l.35 4 3.76-1.4.9 2-3.85 1.28 2.76 3.39-1.67 1.3-2.69-3.52-2 3.52-1.89-1.27 2.13-3.39-4-1.28.55-2 4 1.35-.35-4z" transform-origin="216.155px 103.135px"/><path d="M193.64,97.86l.35,4,3.77-1.4.89,2-3.85,1.28,2.77,3.39-1.73,1.27-2.69-3.52-2,3.52-1.89-1.27,2.13-3.39-4-1.28.54-2,4,1.35-.35-4Z" transform-origin="193.02px 103.105px"/><path d="M245.71 89.94h3.94v1h-3.94z" transform-origin="247.68px 90.44px"/><path d="M253.73 89.94h12.85v1h-12.85z" transform-origin="260.155px 90.44px"/></g></g><g id="F" class="B" transform-origin="375.95px 150.615px"><g class="C"><path d="M397.79 127.24L393.7 174a6.17 6.17 0 0 1-6 5.52h-32.47a5 5 0 0 1-5-5.52l4.09-46.77a6.14 6.14 0 0 1 6-5.52h32.47a5 5 0 0 1 5 5.53z" class="G" transform-origin="374.011px 150.615px"/></g><g class="D"><path d="M397.79 127.24L393.7 174a6.17 6.17 0 0 1-6 5.52h-32.47a5 5 0 0 1-5-5.52l4.09-46.77a6.14 6.14 0 0 1 6-5.52h32.47a5 5 0 0 1 5 5.53z" class="G" transform-origin="374.011px 150.615px"/></g><g class="C"><path d="M357.28 134.78h-.09a1 1 0 0 1-.91-1.08l.38-4.28a1 1 0 0 1 1-.91h4.52a1 1 0 0 1 0 2h-3.6l-.3 3.36a1 1 0 0 1-1 .91z" transform-origin="359.728px 131.645px"/><path d="M393.64 134.78h-.09a1 1 0 0 1-.91-1.08l.28-3.19h-3.42a1 1 0 0 1 0-2h4.5a1 1 0 0 1 1 1.09l-.38 4.27a1 1 0 0 1-.98.91z" transform-origin="391.752px 131.645px"/><path d="M359 167.05h-4.52a1 1 0 0 1-.99-1.08l.37-4.28a1 1 0 0 1 2 .17l-.28 3.19H359a1 1 0 0 1 0 2z" transform-origin="356.743px 163.911px"/><path d="M390.81 167.05h-4.51a1 1 0 0 1 0-2h3.6l.29-3.36a1 1 0 0 1 1.08-.91 1 1 0 0 1 .91 1.08l-.37 4.28a1 1 0 0 1-1 .91z" transform-origin="388.742px 163.913px"/></g><g class="D"><ellipse cx="374.61" cy="147.63" rx="16.37" ry="13.16" transform-origin="374.61px 147.63px" transform="rotate(284.46)"/></g><g class="D"><path d="M378.55 172.53H365.6l1.13-12.95h12.95l-1.13 12.95z" transform-origin="372.64px 166.055px"/><path d="M393.7,174a6.17,6.17,0,0,1-6,5.52H355.23a5,5,0,0,1-5-5.52s14.92-4.72,16.76-4.72h11.53Z" transform-origin="371.951px 174.4px"/></g><g class="C"><path d="M390.17 149.62h18.43v1h-18.43z" transform-origin="399.385px 150.12px" transform="rotate(274.71)"/></g><g class="C"><path d="M399.24 133.84h3.62v1h-3.62z" transform-origin="401.05px 134.34px" transform="rotate(274.71)"/></g></g><g id="G" class="B" transform-origin="372.619px 258.674px"><g class="C"><path d="M361.94 244.07h3.94v1h-3.94z" transform-origin="363.91px 244.57px"/><path d="M369.96 244.07h12.85v1h-12.85z" transform-origin="376.385px 244.57px"/><path d="M406.33 227l-2.49 28.5a5.18 5.18 0 0 1-5.06 4.65 4.2 4.2 0 0 1-4.25-4.65L397 227a15.08 15.08 0 0 0-15.24-16.7H371.6a18.61 18.61 0 0 0-18.16 16.7l-1 11.64h-9.3l1-11.64c1.25-14.34 13.94-26 28.27-26h10.2a23.47 23.47 0 0 1 23.72 26z" transform-origin="374.804px 230.574px"/></g><g class="D"><g class="H" transform-origin="374.804px 230.574px"><path d="M406.33 227l-2.49 28.5a5.18 5.18 0 0 1-5.06 4.65 4.2 4.2 0 0 1-4.25-4.65L397 227a15.08 15.08 0 0 0-15.24-16.7H371.6a18.61 18.61 0 0 0-18.16 16.7l-1 11.64h-9.3l1-11.64c1.25-14.34 13.94-26 28.27-26h10.2a23.47 23.47 0 0 1 23.72 26z" transform-origin="374.804px 230.574px"/></g></g><path d="M407 254.46L402.15 310a7.07 7.07 0 0 1-6.92 6.35h-55.54a5.73 5.73 0 0 1-5.8-6.35l4.86-55.54a7.07 7.07 0 0 1 3.46-5.39 6.8 6.8 0 0 1 3.46-1h55.53a6 6 0 0 1 3.21.91 5.76 5.76 0 0 1 2.59 5.48z" class="C" transform-origin="370.446px 282.21px"/><path d="M349.25,278.72l14.43,22.21,47.59-47.59a.48.48,0,0,0-.63-.71l-45.35,35.55-8.57-13.81Z" class="D" transform-origin="380.316px 276.741px"/></g><g id="H" class="B" transform-origin="102.706px 144.845px"><path d="M122 171.31H85.82a6.85 6.85 0 0 1-6.69-6.15L76 129a5.54 5.54 0 0 1 5.61-6.15h36.14a6.84 6.84 0 0 1 6.65 6.15l3.16 36.14a5.54 5.54 0 0 1-5.56 6.17z" class="C" transform-origin="101.781px 147.08px"/><g class="D"><path d="M122 171.31H85.82a6.85 6.85 0 0 1-6.69-6.15L76 129a5.54 5.54 0 0 1 5.61-6.15h36.14a6.84 6.84 0 0 1 6.65 6.15l3.16 36.14a5.54 5.54 0 0 1-5.56 6.17z" class="G" transform-origin="101.781px 147.08px"/></g><path d="M79.15 150.73S92 132.84 101.46 133.3s25.18 17 25.18 17-23.17 12.17-47.49.43z" class="D" transform-origin="102.895px 144.565px"/><g class="E"><path d="M79.56 151l-.81-.58c.52-.73 12.77-17.65 22.35-17.65h.39c9.56.46 24.86 16.48 25.51 17.16l-.72.69c-.16-.16-15.68-16.41-24.84-16.85h-.34c-9.1.02-21.42 17.08-21.54 17.23z" transform-origin="102.875px 141.885px"/><path d="M77.82 151.36c-1.94 0-4.46-.72-5.35-3.46a.5.5 0 0 1 .32-.63.49.49 0 0 1 .63.32c1.15 3.54 5.45 2.69 5.63 2.65a.51.51 0 0 1 .59.39.5.5 0 0 1-.39.59 7.36 7.36 0 0 1-1.43.14z" transform-origin="76.0478px 149.301px"/><path d="M85.45 143.68a.5.5 0 0 1-.31-.1c-.15-.12-3.7-2.86-4.6-5.65a.5.5 0 0 1 .32-.63.51.51 0 0 1 .63.32c.81 2.49 4.22 5.14 4.26 5.16a.5.5 0 0 1 .09.7.5.5 0 0 1-.39.2z" transform-origin="83.2295px 140.479px"/><path d="M92.79 136.87h0a.52.52 0 0 1-.49-.51 52.06 52.06 0 0 0-2.17-6.4l-.47-1.26a.5.5 0 1 1 .96-.29c0 .12.21.56.44 1.19l2.24 6.78a.49.49 0 0 1-.51.49z" transform-origin="91.4688px 132.46px"/><path d="M101.46,133.8a.52.52,0,0,1-.5-.46l-.7-8a.5.5,0,0,1,1-.09l.7,8.06a.51.51,0,0,1-.45.54Z" transform-origin="101.11px 129.321px"/><path d="M128.14 150.81a8.44 8.44 0 0 1-1.46-.12.5.5 0 0 1-.39-.59.48.48 0 0 1 .58-.39s2.45.47 3.95-.59a2.8 2.8 0 0 0 1.14-2 .5.5 0 1 1 1 .15 3.79 3.79 0 0 1-1.56 2.65 5.7 5.7 0 0 1-3.26.89z" transform-origin="129.623px 148.751px"/><path d="M119.16 143.15a.48.48 0 0 1-.37-.17.5.5 0 0 1 0-.71s3-2.64 3.32-5.1a.51.51 0 0 1 .57-.42.5.5 0 0 1 .42.57c-.42 2.82-3.52 5.58-3.65 5.7a.46.46 0 0 1-.29.13z" transform-origin="120.874px 139.948px"/><path d="M110.71 137.34h-.09a.51.51 0 0 1-.41-.58c0-.06 1.1-6.49 1.3-7.81a.5.5 0 1 1 1 .15l-1.3 7.83a.5.5 0 0 1-.5.41z" transform-origin="111.36px 132.93px"/></g><g class="C"><ellipse cx="102.45" cy="144.63" rx="10.84" ry="11.84" transform-origin="102.45px 144.63px" transform="rotate(313.75)"/></g><g><path d="M107.14,144.63a6.45,6.45,0,0,0,0-.76,5.36,5.36,0,0,0-5.24-4.81,4.34,4.34,0,0,0-4.39,4.81,3.28,3.28,0,0,0,.14.76H91.13a10.21,10.21,0,0,1,10.33-11.33,12.63,12.63,0,0,1,12.33,11.33Z" opacity=".3" transform-origin="102.429px 138.964px"/></g><g><path d="M107.13 143.87a6.45 6.45 0 0 1 0 .76 4.33 4.33 0 0 1-4.41 4.05 5.35 5.35 0 0 1-5.09-4.05 3.28 3.28 0 0 1-.14-.76 4.34 4.34 0 0 1 4.39-4.81 5.36 5.36 0 0 1 5.25 4.81z" opacity=".7" transform-origin="102.303px 143.87px"/></g><g class="D"><path d="M109.74 139.15a3.54 3.54 0 0 1-3.58 3.92 4.37 4.37 0 0 1-4.26-3.92 3.53 3.53 0 0 1 3.58-3.92 4.36 4.36 0 0 1 4.26 3.92z" opacity=".7" transform-origin="105.819px 139.15px"/></g><g class="C"><path d="M90.32 118.38h3.94v1h-3.94z" transform-origin="92.29px 118.88px"/><path d="M98.34 118.38h12.85v1H98.34z" transform-origin="104.765px 118.88px"/></g></g><g id="I" class="B" transform-origin="236.469px 280.266px"><g class="F"><path d="M276 191.65l.34.41.46.53 1 1.06 2.2 2.13a58.1 58.1 0 0 0 4.77 3.95l5.25 3.55 2.76 1.63 2.17 1.2a1.44 1.44 0 0 0 1 .06c.7-.21 4.72-4.19 6-5.67 2.84-3.25 7.14-7.53 9.46-11.17l2.59 3.57a58.69 58.69 0 0 1-6.47 12.64 28 28 0 0 1-5.1 5.71 14.34 14.34 0 0 1-3.92 2.35 9.51 9.51 0 0 1-5.68.43 8.9 8.9 0 0 1-1.43-.48l-.9-.39-1.62-.74c-1.09-.48-2.14-1.06-3.2-1.59a66.35 66.35 0 0 1-6.16-3.73 63.54 63.54 0 0 1-5.75-4.46c-.95-.83-1.8-1.67-2.67-2.58-.43-.45-.87-.92-1.29-1.41l-.62-.76a15.72 15.72 0 0 1-.71-.92z" transform-origin="291.24px 201.804px"/><path d="M311,189.88l4.64-9.92,4.43,7.94s-2.91,5-6.07,5Z" transform-origin="315.535px 186.43px"/><path d="M320.9 175.84l4.68 6.02-5.47 6.03-4.43-7.93 5.22-4.12z" transform-origin="320.63px 181.865px"/></g><path d="M319.27 190.63h7.37a.84.84 0 0 0 .83-.76L329 172.2a.83.83 0 0 0-.83-.91h-7.36a.84.84 0 0 0-.83.77l-1.55 17.66a.84.84 0 0 0 .84.91z" class="C" transform-origin="323.716px 180.96px"/><g class="D"><path d="M319.35 188.86h7.38l1.38-15.79h-7.38l-1.38 15.79z" opacity=".3" transform-origin="323.73px 180.965px"/></g><path d="M318.87 186.62h0l1.31-.67a8 8 0 0 0 1.83-1.28l.24-.87a1.26 1.26 0 0 0-1.39-.57l-1.09.3-5.41.41-.13 2.28 1.58 2.44h.54a2.47 2.47 0 0 0 2.52-2.04z" class="F" transform-origin="318.24px 185.926px"/><path d="M266.56 182c3.75-.68 30.2 22.25 30.2 22.25l-7.84 11.5s-28.92-20.14-28-25c.89-5.11.18-7.75 5.64-8.75z" class="E" transform-origin="278.829px 198.868px"/><g><path d="M269.9 189.33l-.29 12 13.84 10.64z" class="I" transform-origin="276.53px 200.65px"/></g><g class="F"><path d="M248.93 420.31l8.87.87 2.82-20.57-8.88-.87-2.81 20.57z" transform-origin="254.775px 410.46px"/><path d="M161.6 299.61l-2.27 8.64 19.19 8.27 3.98-8.77-20.9-8.14z" transform-origin="170.915px 308.065px"/></g><g class="C"><path d="M264.15 423a3.38 3.38 0 0 0 2.19-.48 1.18 1.18 0 0 0 .4-1 .65.65 0 0 0-.34-.57c-1.07-.64-4.69 1.08-5.1 1.27a.21.21 0 0 0-.12.21.21.21 0 0 0 .17.18 15.5 15.5 0 0 0 2.8.39zm1.61-1.79a.7.7 0 0 1 .4.09.26.26 0 0 1 .14.23.8.8 0 0 1-.27.67c-.55.47-2 .51-4 .13a11.52 11.52 0 0 1 3.76-1.13z" transform-origin="263.962px 421.917px"/><path d="M261.39 422.57h.08c1.08-.45 3.25-2.31 3.11-3.33a.79.79 0 0 0-.78-.62 1.47 1.47 0 0 0-1.19.3c-1.15.89-1.42 3.3-1.44 3.39a.23.23 0 0 0 .05.21.22.22 0 0 0 .17.05zm2.21-3.57h.12c.39.06.41.21.41.26.09.61-1.39 2.09-2.5 2.68a4.78 4.78 0 0 1 1.22-2.72 1.06 1.06 0 0 1 .77-.19z" transform-origin="262.875px 420.584px"/></g><g class="E"><path d="M257.36 417.6l-8 .34a.7.7 0 0 0-.69.63l-1.92 11.17a1.44 1.44 0 0 0 1.37 1.52h.16l9.59-.59c2.71-.09 11 .89 14.7.05s3-4.51 1.41-4.48c-5.14.1-11.07-3.25-14-7.17-.51-.33-2.06-1.5-2.62-1.47z" transform-origin="261.008px 424.43px"/><path d="M163.41 309.38l4.08-6.93a.69.69 0 0 0-.17-.92l-8.32-7.67a1.45 1.45 0 0 0-2 .32l-.09.14-4.7 8.37c-1.4 2.33-6.74 8.8-8 12.33s2.16 5 3 3.62c2.71-4.38 8.74-7.54 13.64-7.92.47-.18 2.28-.85 2.56-1.34z" transform-origin="155.765px 306.374px"/></g><g><path class="I" d="M260.62 400.61l-1.45 10.61-8.88-.87 1.44-10.6 8.89.86z" transform-origin="255.455px 405.485px"/></g><g><path class="I" d="M188.4 309.89l-4.1 9.25-12.36-5.46 3.15-8.81 13.31 5.02z" transform-origin="180.17px 312.005px"/></g><path d="M272.23 192.55c5.07 8.62-1.13 15.89-6.31 41.65l-33.42.09c.54-13.88.48-25.1-5.44-52.41a4.58 4.58 0 0 1 4.49-5.6c2.76 0 6.23.09 9.76.45a121.54 121.54 0 0 1 16.55 2.51 68.75 68.75 0 0 1 8.7 2.72c1.72.58 3.79 5.26 5.67 10.59z" class="E" transform-origin="250.53px 205.285px"/><path d="M267.16,235.94s18.77,54.27,18.32,80.37c-.26,14.95-1.39,42.81-5.9,62.4-3.68,16-18.68,26.2-18.68,26.2l-12-.71s-6.5-24.4-5.37-34.11c2.25-19.33,8.92-33.85,8.11-51.6-1.28-29.06-9.88-83-9.88-83Z" class="C" transform-origin="263.624px 320.2px"/><path class="E" d="M246.49 407.33l16.95 1 1.54-5.09-18.94-1.75.45 5.84z" transform-origin="255.51px 404.91px"/><g><path d="M248.63,345.58s0-.1.1-.09c10.65,1,18-14.33,16.25-35.32l-5.65-53.5Z" class="I" transform-origin="256.934px 301.125px"/></g><path d="M258.74,235.49s14.92,95.43-16.1,106.17c-16.37,6.2-30.14-.52-46.45-7.74-9.43-4.17-21.21-15.46-21.21-15.46l4.53-12.33a59,59,0,0,1,25-1.26c15.9,2.46,16.57,7,22.22,3.57,11.88-29.36-8.56-52.57,5.33-73Z" class="C" transform-origin="218.653px 289.771px"/><path class="E" d="M180.4 303.79l-6.06 15.99 4.46 3.41 7.2-19.03-5.6-.37z" transform-origin="180.17px 313.49px"/><g class="F"><path d="M177.9,217.56c-1.51,2.23-9.17.72-9.17.72l-1.63-9.49,9.41,3.77Z" transform-origin="172.5px 213.785px"/><path d="M169 208.3l1.46 9.86-5.65.84a1.24 1.24 0 0 1-1.33-1l-2.17-7a.65.65 0 0 1 .46-.77z" transform-origin="165.877px 213.653px"/><path d="M166.47,212.77l3.22.57,3.05-2.29-1.18-.84a4,4,0,0,1-1.58-2.37,17.34,17.34,0,0,1-.41-3.05v-.34a1.39,1.39,0,0,0-1.18-1.2l-.8.59c-.5,1.09-.14,2.36-.2,3.21l-.13,1.65-1.29.56Z" transform-origin="169.355px 208.295px"/><path d="M228.67,180l-18.92,26L175,212.86v5.7s32.66,2.42,40-1.85,19.65-30.17,19.65-30.17Z" transform-origin="204.825px 199.622px"/></g><g class="E"><path d="M228.45 130c-7.94-2.66-17.15 2.27-20.78 9.81s-2.36 16.79 1.73 24.09c1.23 2.21 2.7 4.29 3.71 6.6a10.44 10.44 0 0 1 .69 7.37c-.82 2.39-1.66 3.92-4.62 3.54 0 0 0-1.64 1.13-1.44h0s-2.4 1.33-3.34.46c1.09 1.68 4 1.07 4.93-.71 1.39-2.65-1.17-6.24-4.17-6.21s-5.44 3.07-5.34 6.06a8.22 8.22 0 0 0 5 6.89 3.72 3.72 0 0 1-4-2.15c1.36 3.56 5.8 5.13 9.55 4.43s6.92-3.1 9.86-5.53c4-3.28 8.09-7.43 8-12.56-.09-3.83-2.55-7.12-4.62-10.35s-3.88-7.17-2.56-10.76c1.11-3.05 4.13-4.89 6.79-6.75 1.92-1.33 5.82-4.3 5.36-7.11-.47-2.68-5.07-4.93-7.32-5.68z" transform-origin="219.097px 159.087px"/><path d="M210.56 219l-5.24-13.87 1.2.1a5.07 5.07 0 0 0 4.85-2.58c4-7.12 14.33-25.19 17.24-26.09 4.15-1.23 8.42 2.09 10 7 1.19 3.61-11 19.09-16.62 27.89-4.99 7.79-11.43 7.55-11.43 7.55z" transform-origin="222.006px 197.652px"/></g><g class="C"><path d="M159.45 313.94v.11a1.22 1.22 0 0 0 .9.76.74.74 0 0 0 .71-.15c.84-.77.3-4 .25-4.32a.2.2 0 0 0-.16-.17.24.24 0 0 0-.21.08c-.68.96-1.76 2.67-1.49 3.69zm1.54-3c.18 1.28.26 3-.21 3.42a.33.33 0 0 1-.32 0 .8.8 0 0 1-.6-.5c-.18-.54.2-1.64 1.13-2.94z" transform-origin="160.467px 312.506px"/><path d="M161 310.76c.26 1.08 1.28 2.92 2.18 3.14a.74.74 0 0 0 .82-.42 1.11 1.11 0 0 0 .06-.94c-.41-1.24-2.77-2.26-2.87-2.31a.22.22 0 0 0-.21 0 .22.22 0 0 0-.08.2 2.19 2.19 0 0 0 .1.33zm2.72 2a.68.68 0 0 1-.09.52c-.13.24-.26.24-.36.22-.61-.12-1.54-1.63-1.84-2.68.77.39 2 1.12 2.26 1.88a.09.09 0 0 0 0 .06z" transform-origin="162.518px 312.059px"/><path d="M232.38 232.6l-.93 3.25c-.12.25.17.51.59.5h34.5c.33 0 .6-.17.62-.37l.32-3.25c0-.22-.26-.42-.62-.41h-33.9a.64.64 0 0 0-.58.28z" transform-origin="249.451px 234.334px"/></g><g class="D"><path d="M232.38 232.6l-.93 3.25c-.12.25.17.51.59.5h34.5c.33 0 .6-.17.62-.37l.32-3.25c0-.22-.26-.42-.62-.41h-33.9a.64.64 0 0 0-.58.28z" class="H" transform-origin="249.451px 234.334px"/></g><g class="C"><path d="M239 236.65h-1c-.19 0-.35-.1-.33-.22l.45-4.23c0-.12.19-.22.39-.22h1c.19 0 .34.1.33.23l-.45 4.22c-.06.12-.24.23-.39.22z" transform-origin="238.754px 234.315px"/><path d="M263.87 236.65h-1c-.18 0-.34-.1-.32-.22l.45-4.22c0-.13.18-.23.37-.23h1c.19 0 .35.1.33.22l-.45 4.22c-.02.13-.18.23-.38.23z" transform-origin="263.625px 234.315px"/><path d="M252.46 236.63h-1c-.19 0-.35-.1-.33-.22l.45-4.22c0-.13.19-.23.38-.23h1c.19 0 .34.1.33.22l-.46 4.22c0 .13-.17.23-.37.23z" transform-origin="252.209px 234.295px"/></g><g class="F"><path d="M242.87,158.53c1.06,5.45,2.1,15.29-1.6,18.25,0,0,1.48,5.59,11.37,7.08,10.92,1.64,5.19-4.58,5.19-4.58-5.95-2.35-5.8-6.65-4.78-10.61Z" transform-origin="250.301px 171.333px"/><path d="M241.31,176.73A106.07,106.07,0,0,1,257,178.91l7.48,2.23c1.33,2.68-.85,8.19-7.11,9.24,0,0-15.77,2.17-20.42-14.07Z" transform-origin="250.902px 183.393px"/></g><g><path d="M247 162.68l6 6a15.21 15.21 0 0 0-.49 2.84c-2.28-.67-5.94-3.18-6.19-5.58a8.25 8.25 0 0 1 .68-3.26z" class="I" transform-origin="249.66px 167.1px"/></g><path d="M236.19,151.65c2.68,8.46,3.62,12.1,9.11,15.43,8.18,5,18-.12,17.9-9.2-.08-8.18-4.43-20.64-13.72-22a12.1,12.1,0,0,0-13.29,15.74Z" class="F" transform-origin="249.394px 152.392px"/><path d="M256.38,150.33a19,19,0,0,0,3.41,4,3.12,3.12,0,0,1-2.43,1Z" fill="#ed893e" transform-origin="258.085px 152.832px"/><path d="M255.43 159.85a5.82 5.82 0 0 0 1-.2.2.2 0 0 0 .15-.24h0a.21.21 0 0 0-.25-.15 5.67 5.67 0 0 1-5-1 .22.22 0 0 0-.31 0 .21.21 0 0 0 0 .3 6 6 0 0 0 4.41 1.29z" class="E" transform-origin="253.771px 159.041px"/><path d="M233.28 134.76a8.2 8.2 0 0 0-3.74 6.55 3.06 3.06 0 0 0 .23 1.47 1.42 1.42 0 0 0 1.14.85c.76 0 1.32-.68 1.74-1.32l1.94-3a14.91 14.91 0 0 0 2-3.19c.65-1.97-2.12-2.12-3.31-1.36z" class="C" transform-origin="233.107px 138.983px"/><g class="E"><path d="M234.23 136.75c-5.31 6.14-7.69 23.13 7.87 27.87 2.6-2.06-1.6-5.81-3.38-10.55-1.17-3.1 4.76-8.89 7.07-11.27s4.44-5.81 7.7-5.26a4.4 4.4 0 0 0 2.56.07c2.59-1.17 1.33-2.72 0-3.8a13.31 13.31 0 0 0-7-2.58 17.33 17.33 0 0 0-14.82 5.52z" transform-origin="243.877px 147.865px"/><path d="M251.5 134.69c6.25 5.21-2 5.34-6.37 8.64-4.19 3.17-1.25 8.36-8.34 10.77-5.79 1.69-7.13.67-8.73-.45a9.12 9.12 0 0 0 7.53-8.19c.49-3.8 8.77-16.81 15.91-10.77z" transform-origin="240.909px 144.055px"/></g><path d="M235.25 158.76a6.55 6.55 0 0 0 4.16 2.7c2.24.39 3.1-1.66 2.33-3.66-.73-1.8-2.76-4.17-4.93-3.66a2.91 2.91 0 0 0-2.09 3.54 3 3 0 0 0 .53 1.08z" class="F" transform-origin="238.323px 157.789px"/><g class="E"><path d="M250.43 135.22c1.21 3.08 4.7 2.67 7.28 5.89 1.59 2 4.71-4.17.46-6.6s-9.64-4.11-7.74.71z" transform-origin="255.174px 136.818px"/><path d="M246.75,148.22a.42.42,0,0,0,.43-.25c.82-1.82,3.28-2.28,3.3-2.28a.44.44,0,0,0,.34-.5.42.42,0,0,0-.49-.33c-.13,0-2.93.59-3.93,2.79a.43.43,0,0,0,.21.56h.14Z" transform-origin="248.595px 146.538px"/><path d="M259.75 144.54a.4.4 0 0 0 .37-.19.41.41 0 0 0-.11-.58h0a4.2 4.2 0 0 0-3.84-.49.41.41 0 0 0-.22.56.42.42 0 0 0 .55.22h0a3.31 3.31 0 0 1 3 .42.6.6 0 0 0 .25.06z" transform-origin="258.052px 143.782px"/></g><path d="M300.86 199.28l-5.86 3.33-6.09 13.1s5.88 3.74 10.52.71 1.43-17.14 1.43-17.14z" class="C" transform-origin="295.426px 208.442px"/><g class="D"><path d="M300.86 199.28l-5.86 3.33-6.09 13.1s5.88 3.74 10.52.71 1.43-17.14 1.43-17.14z" class="H" transform-origin="295.426px 208.442px"/></g><path d="M198.39 203.33l6.93 2 6.57 13.59s-5.28 4.89-11 .22c-4.28-3.54-2.5-15.81-2.5-15.81z" class="C" transform-origin="204.956px 212.245px"/><g class="D"><g class="H" transform-origin="204.956px 212.245px"><path d="M198.39 203.33l6.93 2 6.57 13.59s-5.28 4.89-11 .22c-4.28-3.54-2.5-15.81-2.5-15.81z" transform-origin="204.956px 212.245px"/></g></g><g class="E"><path d="M259.35 147.93c.48-.09 1 .45 1.11 1.19s-.16 1.42-.64 1.5-1-.45-1.11-1.19.16-1.43.64-1.5z" transform-origin="259.585px 149.274px"/><path d="M260.83 147.2l-1.69.83c1.02.72 1.69-.83 1.69-.83z" transform-origin="259.985px 147.71px"/><path d="M251 149.65c.48-.09 1 .45 1.11 1.19s-.16 1.42-.64 1.5-1-.45-1.11-1.19.14-1.41.64-1.5z" transform-origin="251.234px 150.994px"/><path d="M252.46 148.92l-1.69.83c1.02.72 1.69-.83 1.69-.83z" transform-origin="251.615px 149.43px"/><path d="M208.66 187.91a7.31 7.31 0 0 1-2.75-.52c-3.1-1.27-4.54-4.49-4-8.85a.5.5 0 0 1 .56-.43.49.49 0 0 1 .43.56c-.52 3.87.7 6.71 3.35 7.79a7.7 7.7 0 0 0 8.65-2.66c2.51-3.34 1.69-8.08-2.22-13-10.24-12.85-9.56-19.68-8.11-25.08 2.1-7.84 8.25-16.82 25.65-15.09a.5.5 0 1 1-.1 1c-16.69-1.66-22.59 6.9-24.59 14.36-1.44 5.4-2 11.71 7.93 24.2 6 7.53 3.57 12.46 2.24 14.22a9 9 0 0 1-7.04 3.5z" transform-origin="216.236px 159.162px"/></g></g></svg>