<svg width="1510" height="229" viewBox="0 0 1510 229" fill="none" xmlns="http://www.w3.org/2000/svg">
<g filter="url(#filter0_d_105_395)">
<path d="M1533 47.0758L1516.8 78.4842C1500.6 109.598 1468.21 172.856 1435.81 176.534C1403.42 180.212 1371.02 125.781 1338.62 121.588C1306.23 117.69 1273.83 164.765 1241.44 156.895C1209.04 149.319 1176.65 86.0605 1144.25 78.4842C1111.85 70.6137 1079.46 117.69 1047.06 137.329C1014.67 156.674 982.271 149.319 949.875 129.458C917.479 109.598 885.083 78.7049 852.687 86.2811C820.292 94.1516 787.896 141.227 755.5 149.098C723.104 156.674 690.708 125.781 658.312 109.819C625.917 94.1516 593.521 94.1516 561.125 113.791C528.729 133.136 496.333 172.856 463.937 180.433C431.542 188.303 399.146 164.765 366.75 149.098C334.354 133.136 301.958 125.781 269.562 109.819C237.167 94.1516 204.771 70.6137 172.375 86.2811C139.979 102.243 107.583 156.674 75.1874 156.895C42.7916 156.674 10.3958 102.243 -5.80216 74.5122L-22.0001 47.0758V-1.82743e-07H-5.80216C10.3958 -1.82743e-07 42.7916 -1.82743e-07 75.1874 -1.82743e-07C107.583 -1.82743e-07 139.979 -1.82743e-07 172.375 -1.82743e-07C204.771 -1.82743e-07 237.167 -1.82743e-07 269.562 -1.82743e-07C301.958 -1.82743e-07 334.354 -1.82743e-07 366.75 -1.82743e-07C399.146 -1.82743e-07 431.542 -1.82743e-07 463.937 -1.82743e-07C496.333 -1.82743e-07 528.729 -1.82743e-07 561.125 -1.82743e-07C593.521 -1.82743e-07 625.917 -1.82743e-07 658.312 -1.82743e-07C690.708 -1.82743e-07 723.104 -1.82743e-07 755.5 -1.82743e-07C787.896 -1.82743e-07 820.292 -1.82743e-07 852.687 -1.82743e-07C885.083 -1.82743e-07 917.479 -1.82743e-07 949.875 -1.82743e-07C982.271 -1.82743e-07 1014.67 -1.82743e-07 1047.06 -1.82743e-07C1079.46 -1.82743e-07 1111.85 -1.82743e-07 1144.25 -1.82743e-07C1176.65 -1.82743e-07 1209.04 -1.82743e-07 1241.44 -1.82743e-07C1273.83 -1.82743e-07 1306.23 -1.82743e-07 1338.62 -1.82743e-07C1371.02 -1.82743e-07 1403.42 -1.82743e-07 1435.81 -1.82743e-07C1468.21 -1.82743e-07 1500.6 -1.82743e-07 1516.8 -1.82743e-07H1533V47.0758Z" fill="url(#paint0_linear_105_395)" fill-opacity="0.5" shape-rendering="crispEdges"/>
</g>
<defs>
<filter id="filter0_d_105_395" x="-43.0001" y="0" width="1597" height="229" filterUnits="userSpaceOnUse" color-interpolation-filters="sRGB">
<feFlood flood-opacity="0" result="BackgroundImageFix"/>
<feColorMatrix in="SourceAlpha" type="matrix" values="0 0 0 0 0 0 0 0 0 0 0 0 0 0 0 0 0 0 127 0" result="hardAlpha"/>
<feOffset dy="26"/>
<feGaussianBlur stdDeviation="10.5"/>
<feComposite in2="hardAlpha" operator="out"/>
<feColorMatrix type="matrix" values="0 0 0 0 0 0 0 0 0 0 0 0 0 0 0 0 0 0 0.1 0"/>
<feBlend mode="normal" in2="BackgroundImageFix" result="effect1_dropShadow_105_395"/>
<feBlend mode="normal" in="SourceGraphic" in2="effect1_dropShadow_105_395" result="shape"/>
</filter>
<linearGradient id="paint0_linear_105_395" x1="755.5" y1="182" x2="755.5" y2="0" gradientUnits="userSpaceOnUse">
<stop stop-color="#E4EFE7" stop-opacity="0"/>
<stop offset="1" stop-color="#E4EFE7" stop-opacity="0.25"/>
</linearGradient>
</defs>
</svg>
